<svg width="512" height="512" viewBox="0 0 512 512" fill="none" xmlns="http://www.w3.org/2000/svg">
  <rect width="512" height="512" rx="64" fill="#0B84FE"/>
  <circle cx="256" cy="256" r="160" fill="white"/>
  <path d="M256 106C256 106 256 160 256 160C256 160 256 214 256 214M256 106C256 106 202 106 202 106C202 106 148 106 148 106M256 106C256 106 310 106 310 106C310 106 364 106 364 106M256 214C256 214 202 214 202 214C202 214 148 214 148 214M256 214C256 214 310 214 310 214C310 214 364 214 364 214M148 106C148 106 148 160 148 160C148 160 148 214 148 214M364 106C364 106 364 160 364 160C364 160 364 214 364 214" stroke="#0B84FE" stroke-width="20" stroke-linecap="round"/>
  <circle cx="256" cy="320" r="20" fill="#0B84FE"/>
  <path d="M236 320C236 320 236 374 236 374C236 374 236 428 236 428M276 320C276 320 276 374 276 374C276 374 276 428 276 428" stroke="#0B84FE" stroke-width="10" stroke-linecap="round"/>
</svg>


