<svg width="512" height="512" viewBox="0 0 512 512" fill="none" xmlns="http://www.w3.org/2000/svg">
  <rect width="512" height="512" rx="64" fill="#0B84FE"/>
  <circle cx="256" cy="256" r="130" fill="white"/>
  <path d="M256 126C256 126 256 180 256 180C256 180 256 234 256 234M256 126C256 126 202 126 202 126C202 126 148 126 148 126M256 126C256 126 310 126 310 126C310 126 364 126 364 126M256 234C256 234 202 234 202 234C202 234 148 234 148 234M256 234C256 234 310 234 310 234C310 234 364 234 364 234M148 126C148 126 148 180 148 180C148 180 148 234 148 234M364 126C364 126 364 180 364 180C364 180 364 234 364 234" stroke="#0B84FE" stroke-width="16" stroke-linecap="round"/>
  <circle cx="256" cy="320" r="16" fill="#0B84FE"/>
  <path d="M240 320C240 320 240 374 240 374C240 374 240 428 240 428M272 320C272 320 272 374 272 374C272 374 272 428 272 428" stroke="#0B84FE" stroke-width="8" stroke-linecap="round"/>
</svg>


